<svg width="124" height="24" viewBox="0 0 124 24" fill="none" xmlns="http://www.w3.org/2000/svg">
<path d="M12.3494 17.0489V12.4149C12.3494 11.1382 11.8991 10.0507 10.9983 9.15227C10.0976 8.25386 9.00725 7.80465 7.72727 7.80465C6.4473 7.80465 5.35694 8.25386 4.45622 9.15227C3.53969 10.0507 3.08143 11.1382 3.08143 12.4149C3.08143 13.6916 3.53969 14.7792 4.45622 15.6776C5.35694 16.5918 6.4473 17.0489 7.72727 17.0489H12.3494ZM2.25181 6.97716C3.76882 5.46403 5.59398 4.70747 7.72727 4.70747C9.86057 4.70747 11.6778 5.46403 13.179 6.97716C14.696 8.47452 15.4545 10.2871 15.4545 12.4149V20.1224H7.72727C5.59398 20.1224 3.76882 19.3737 2.25181 17.8764C0.750604 16.3633 0 14.5428 0 12.4149C0 10.2871 0.750604 8.47452 2.25181 6.97716Z" fill="#031555"/>
<path d="M32.6846 7.80465H21.8759C21.4492 7.80465 21.0779 7.95438 20.7619 8.25386C20.4616 8.55333 20.3115 8.91585 20.3115 9.34142C20.3115 9.76698 20.4616 10.1295 20.7619 10.429C21.0779 10.7284 21.4492 10.8782 21.8759 10.8782H28.0388C29.3187 10.8782 30.417 11.3274 31.3335 12.2258C32.2342 13.1242 32.6846 14.2118 32.6846 15.4885C32.6846 16.7652 32.2342 17.8606 31.3335 18.7748C30.417 19.6732 29.3187 20.1224 28.0388 20.1224H17.2301V17.0489H28.0388C28.4654 17.0489 28.8289 16.8992 29.1291 16.5997C29.4294 16.2844 29.5795 15.914 29.5795 15.4885C29.5795 15.0629 29.4294 14.7004 29.1291 14.4009C28.8289 14.1015 28.4654 13.9517 28.0388 13.9517H21.8759C20.5959 13.9517 19.4977 13.5025 18.5811 12.6041C17.6804 11.7057 17.2301 10.6181 17.2301 9.34142C17.2301 8.06472 17.6804 6.96928 18.5811 6.0551C19.4977 5.15668 20.5959 4.70747 21.8759 4.70747H32.6846V7.80465Z" fill="#031555"/>
<path d="M41.9978 17.0489H45.0792V20.1224H41.9978C39.8645 20.1224 38.0393 19.3737 36.5223 17.8764C35.0211 16.3633 34.2705 14.5428 34.2705 12.4149V0H37.3519V4.70747H43.5385V7.80465H37.3519V12.4149C37.3519 13.6916 37.8102 14.7792 38.7267 15.6776C39.6274 16.5918 40.7178 17.0489 41.9978 17.0489Z" fill="#031555"/>
<path d="M49.9835 20.1224H46.9021V12.4149C46.9021 10.2871 47.6527 8.47452 49.1539 6.97716C50.6709 5.46403 52.4961 4.70747 54.6294 4.70747H57.7108V7.80465H54.6294C53.3494 7.80465 52.2591 8.25386 51.3583 9.15227C50.4418 10.0507 49.9835 11.1382 49.9835 12.4149V20.1224Z" fill="#031555"/>
<path d="M101.515 15.6303C102.416 14.7319 102.866 13.6444 102.866 12.3677C102.866 11.091 102.416 10.0034 101.515 9.10499C100.615 8.20657 99.5243 7.75736 98.2443 7.75736H93.5985V12.3677C93.5985 13.6444 94.0568 14.7319 94.9733 15.6303C95.874 16.5445 96.9644 17.0016 98.2443 17.0016C99.5243 17.0016 100.615 16.5445 101.515 15.6303ZM103.696 6.92987C105.213 8.42724 105.972 10.2398 105.972 12.3677C105.972 14.4955 105.213 16.316 103.696 17.8291C102.195 19.3265 100.378 20.0751 98.2443 20.0751C96.5219 20.0751 94.9733 19.5629 93.5985 18.5384V24H90.5171V4.66019H98.2443C100.378 4.66019 102.195 5.41675 103.696 6.92987Z" fill="#031555"/>
<path d="M123.391 7.80465H112.583C112.156 7.80465 111.785 7.95438 111.469 8.25386C111.168 8.55333 111.018 8.91585 111.018 9.34142C111.018 9.76698 111.168 10.1295 111.469 10.429C111.785 10.7284 112.156 10.8782 112.583 10.8782H118.745C120.025 10.8782 121.124 11.3274 122.04 12.2258C122.941 13.1242 123.391 14.2118 123.391 15.4885C123.391 16.7652 122.941 17.8606 122.04 18.7748C121.124 19.6732 120.025 20.1224 118.745 20.1224H107.937V17.0489H118.745C119.172 17.0489 119.536 16.8992 119.836 16.5997C120.136 16.2844 120.286 15.914 120.286 15.4885C120.286 15.0629 120.136 14.7004 119.836 14.4009C119.536 14.1015 119.172 13.9517 118.745 13.9517H112.583C111.303 13.9517 110.204 13.5025 109.288 12.6041C108.387 11.7057 107.937 10.6181 107.937 9.34142C107.937 8.06472 108.387 6.96928 109.288 6.0551C110.204 5.15668 111.303 4.70747 112.583 4.70747H123.391V7.80465Z" fill="#031555"/>
<path d="M72.9053 20.0176H69.5548C69.6453 19.767 69.6604 19.5283 69.7876 19.4027C70.8189 18.3842 71.8718 17.3867 72.9053 16.3951V20.0176Z" fill="#45C1FF"/>
<path d="M88.7935 12.0966C88.7935 16.1454 85.5115 19.4278 81.4632 19.4278C80.5553 19.4278 79.6862 19.2629 78.8838 18.9611C77.6144 18.4476 76.4537 17.5929 75.6266 16.5323C75.3345 16.1486 75.0791 15.7352 74.8663 15.2971C74.8027 15.1619 74.7451 15.0244 74.6933 14.8849C74.6427 14.7491 74.6087 14.5157 74.6826 14.4392C75.5733 13.5177 76.4855 12.6171 77.429 11.6746C77.5017 12.2221 77.519 12.7007 77.6343 13.1544C78.0357 14.7334 79.4491 15.967 80.9896 16.1281C82.6961 16.3065 84.3762 15.4275 85.0944 13.9806C85.844 12.4695 85.5708 10.5359 84.4382 9.34005C82.9688 7.78855 80.3866 7.66352 78.7335 9.20048C77.1946 10.6318 75.7931 12.2087 74.3086 13.6993C74.2957 13.7127 74.2827 13.7257 74.2698 13.7386C72.8381 15.1748 71.47 16.6956 69.9042 17.9712C67.5274 19.9075 64.1882 19.963 61.6164 18.3333C59.1081 16.7435 57.7815 13.6324 58.3667 10.7137C58.9502 7.80471 61.4908 5.33222 64.3881 4.85205C67.598 4.32069 71.1198 6.27368 72.3521 9.28347C72.4141 9.4349 72.4227 9.71352 72.3295 9.80729C71.4593 10.6798 70.5616 11.5248 69.6579 12.3908C69.6261 12.117 69.603 11.7985 69.5518 11.4844C69.2861 9.84339 67.9304 8.50044 66.2358 8.19003C64.6985 7.90818 62.9085 8.71061 62.138 10.0272C61.2505 11.5426 61.3901 13.4433 62.4844 14.7361C63.8326 16.3291 66.301 16.5975 68.0237 15.2551C68.8481 14.6127 69.5712 13.8345 70.3056 13.0844C72.1921 11.1572 74.0015 9.14982 75.9386 7.27766C76.0959 7.12515 76.2538 6.97372 76.4128 6.8239C78.9086 4.46889 82.473 4.15794 85.2884 5.84148C87.391 7.13 88.7935 9.44946 88.7935 12.0966Z" fill="#45C1FF"/>
</svg>
